<?xml version="1.0" encoding="utf-8"?>
<!-- Uploaded to: SVG Repo, www.svgrepo.com, Generator: SVG Repo Mixer Tools -->
<svg width="800px" height="800px" viewBox="0 0 1024 1024" class="icon"  version="1.1" xmlns="http://www.w3.org/2000/svg"><path d="M831.878734 613.511007m-111.794399 0a111.794398 111.794398 0 1 0 223.588797 0 111.794398 111.794398 0 1 0-223.588797 0Z" fill="#FAE1DC" /><path d="M153.774624 613.511007m-111.794399 0a111.794398 111.794398 0 1 0 223.588797 0 111.794398 111.794398 0 1 0-223.588797 0Z" fill="#FAE1DC" /><path d="M502.669101 581.443759m-374.788163 0a374.788163 374.788163 0 1 0 749.576326 0 374.788163 374.788163 0 1 0-749.576326 0Z" fill="#FAE1DC" /><path d="M148.412444 477.375133m-117.015469 0a117.015468 117.015468 0 1 0 234.030937 0 117.015468 117.015468 0 1 0-234.030937 0Z" fill="#98453D" /><path d="M254.985772 316.791952m-141.780274 0a141.780274 141.780274 0 1 0 283.560547 0 141.780274 141.780274 0 1 0-283.560547 0Z" fill="#98453D" /><path d="M429.715231 209.583629m-141.780274 0a141.780274 141.780274 0 1 0 283.560547 0 141.780274 141.780274 0 1 0-283.560547 0Z" fill="#98453D" /><path d="M633.866125 218.544114m-141.780274 0a141.780274 141.780274 0 1 0 283.560547 0 141.780274 141.780274 0 1 0-283.560547 0Z" fill="#98453D" /><path d="M775.646398 316.791952m-141.780273 0a141.780274 141.780274 0 1 0 283.560547 0 141.780274 141.780274 0 1 0-283.560547 0Z" fill="#98453D" /><path d="M877.421986 477.375133m-115.181038 0a115.181038 115.181038 0 1 0 230.362077 0 115.181038 115.181038 0 1 0-230.362077 0Z" fill="#98453D" /><path d="M523.235884 745.731078c-35.806663 0-64.840045 29.033383-64.840046 64.840045 0 35.806663 29.033383 64.840045 64.840046 64.840046 35.806663 0 64.840045-29.033383 64.840045-64.840046 0-35.84194-29.033383-64.840045-64.840045-64.840045z m0 85.618493c-11.465188 0-20.778448-9.31326-20.778448-20.778448s9.31326-20.778448 20.778448-20.778447c11.500465 0 20.778448 9.31326 20.778447 20.778447 0.035278 11.465188-9.277983 20.778448-20.778447 20.778448z" fill="#893F37" /></svg>